# xmcd
#
# Track frame offsets:
#	150
#	13230
#	26289
#	38712
#	47247
#	58877
#	71205
#	83079
#	94993
#	107582
#	120741
#	135269
#	148623
#	158472
#	171952
#	185383
#	201882
#	210858
#	221133
#	233492
#
# Disc length: 3261 seconds
#
# Revision: 0
# Processed by: cddbd v1.5.2PL0 Copyright (c) Steve Scherf et al.
# Submitted via: audiograbber 1.83.01
#
DISCID=130cbb14
DTITLE=Various Artist - Ladies Of Pop - CD 03
DYEAR=2011
DGENRE=Pop
TTITLE0=Teresa Brewer - The Hula Hoop Song
TTITLE1=Ruth Brown - Teardrops From My Eyes
TTITLE2=Doris Day - Cheek To Cheek
TTITLE3=Georgia Gibbs - I'm Walkin' The Floor Over You
TTITLE4=Connie Francis - Carolina Moon
TTITLE5=Brenda Lee - One Step At A Time
TTITLE6=Wynona Carr - Should I Ever Love Again
TTITLE7=Petula Clark - Suddenly There's A Valley
TTITLE8=Lavern Baker - My Happiness Forever
TTITLE9=Marilyn Monroe - Every Baby Needs A Da-Da-Daddy
TTITLE10=Patti Page - All My Love
TTITLE11=Connie Francis - Malaguena
TTITLE12=Janis Martin - Half Loved
TTITLE13=Teresa Brewer - You Send Me
TTITLE14=The Davis Sisters - I Forgot More Than You'll Ever Know
TTITLE15=Doris Day - It's Magic
TTITLE16=Brenda Lee - Hummin' The Blues Over You
TTITLE17=Connie Francis - Singing The Blues
TTITLE18=Shirley Bassey - Fire Down Below
TTITLE19=Alma Cogan - I Can't Tell A Waltz From A Tango
EXTD=
EXTT0=
EXTT1=
EXTT2=
EXTT3=
EXTT4=
EXTT5=
EXTT6=
EXTT7=
EXTT8=
EXTT9=
EXTT10=
EXTT11=
EXTT12=
EXTT13=
EXTT14=
EXTT15=
EXTT16=
EXTT17=
EXTT18=
EXTT19=
PLAYORDER=
